<svg xmlns="http://www.w3.org/2000/svg" xmlns:xlink="http://www.w3.org/1999/xlink" width="500" zoomAndPan="magnify" viewBox="0 0 375 374.999991" height="500" preserveAspectRatio="xMidYMid meet" version="1.0"><defs><g/></defs><rect x="-37.5" width="450" fill="#ffffff" y="-37.499999" height="449.999989" fill-opacity="1"/><rect x="-37.5" width="450" fill="#000000" y="-37.499999" height="449.999989" fill-opacity="1"/><g fill="#ffffff" fill-opacity="1"><g transform="translate(203.919618, 291.243473)"><g><path d="M 158.9375 -3.734375 L 78.96875 -97.90625 L 158.1875 -195.546875 C 159.921875 -197.296875 158.6875 -199.28125 155.9375 -199.28125 L 115.34375 -199.28125 C 114.84375 -199.28125 113.34375 -198.796875 113.09375 -198.546875 L 38.109375 -106.375 L 38.109375 -197.046875 C 38.109375 -198.046875 37.125 -199.28125 35.625 -199.28125 L 2.734375 -199.28125 C 1.25 -199.28125 0 -198.046875 0 -197.046875 L 0 -12.203125 C 0 -12.203125 48.578125 -67.265625 53.5625 -72.484375 L 111.59375 -0.75 C 111.84375 -0.5 113.34375 0 113.84375 0 L 156.6875 0 C 159.1875 0 160.421875 -1.75 158.9375 -3.734375 Z M 158.9375 -3.734375 "/></g></g></g><g fill="#ffffff" fill-opacity="1"><g transform="translate(18.766616, 282.686063)"><g><path d="M 160.796875 -194.328125 L 129.46875 -194.328125 C 127.765625 -194.328125 126.546875 -193.109375 126.546875 -192.140625 L 126.546875 -65.578125 L 36.921875 -193.59375 C 36.671875 -194.078125 35.21875 -194.328125 34.734375 -194.328125 L 2.421875 -194.328125 C 1.21875 -194.328125 0 -193.109375 0 -192.140625 L 0 -46.640625 L 37.171875 -46.640625 L 37.171875 -128.734375 L 126.546875 -0.734375 C 126.796875 -0.25 128.25 0 128.734375 0 L 160.796875 0 C 162.5 0 163.46875 -1.21875 163.46875 -2.1875 L 163.46875 -192.140625 C 163.46875 -193.109375 162.5 -194.328125 160.796875 -194.328125 Z M 160.796875 -194.328125 "/></g></g></g></svg>